<?xml version="1.0" encoding="utf-8"?>
<!-- Generator: Adobe Illustrator 23.0.1, SVG Export Plug-In . SVG Version: 6.00 Build 0)  -->
<svg version="1.1" id="Layer_1" xmlns="http://www.w3.org/2000/svg" xmlns:xlink="http://www.w3.org/1999/xlink" x="0px" y="0px"
	 viewBox="0 0 249.28 103.89" style="enable-background:new 0 0 249.28 103.89;" xml:space="preserve">
<style type="text/css">
	.st0{fill:#242265;}
	.st1{fill:#00D8FF;}
</style>
<g>
	<g>
		<path class="st0" d="M8.84,42.53l0.11,19.36c0.06,9.83,5.36,18.89,13.9,23.76l16.82,9.58c8.54,4.87,19.04,4.8,27.52-0.16
			l16.71-9.78c8.49-4.97,13.68-14.08,13.62-23.92L97.41,42c-0.06-9.83-5.36-18.89-13.9-23.75L66.69,8.67
			c-8.54-4.87-19.03-4.8-27.52,0.16l-16.71,9.78C13.97,23.58,8.78,32.69,8.84,42.53"/>
		<g>
			<path class="st1" d="M62.85,71.06c0.78,1.06,1.55,2.01,2,3.15c0.88,2.25,0.67,4.35-0.91,6.23c-1.8,2.15-5.17,2.44-7.36,0.7
				c-1.63-1.29-2.24-3.01-2.17-5.02c0.05-1.39,0.58-2.64,1.13-3.88c0.51-1.16,1.06-2.3,1.43-3.51c0.44-1.49,0.54-3.01,0.43-4.56
				c-0.11-1.56-0.26-3.12-0.53-4.65c-0.38-2.23-1.21-4.26-2.78-5.97c-1.46-1.6-3.28-2.61-5.23-3.44c-0.86-0.36-1.71-0.76-2.58-1.11
				c-2.04-0.82-4.14-1.08-6.31-0.86c-1.37,0.14-2.72,0.36-4.1,0.37c-1.66,0.01-3.17-0.44-4.45-1.54c-1.89-1.62-2.57-4.65-1.09-6.99
				c1.67-2.66,5.09-3.35,7.79-1.67c0.91,0.57,1.67,1.29,2.3,2.16c0.55,0.76,1.11,1.52,1.67,2.27c0.94,1.27,2.03,2.38,3.33,3.27
				c0.92,0.63,1.94,1.09,2.96,1.55c0.99,0.45,1.99,0.88,3,1.27c1.77,0.69,3.6,1.02,5.5,0.79c1.64-0.2,3.19-0.68,4.61-1.53
				c1.21-0.73,2.34-1.59,3.48-2.43c1.2-0.89,2.34-1.85,3.25-3.07c0.69-0.93,1.23-1.95,1.71-3c0.65-1.41,1.14-2.89,2.07-4.15
				c0.97-1.31,2.2-2.23,3.81-2.53c1.95-0.37,3.66,0.15,5.04,1.61c1.24,1.31,1.68,2.89,1.39,4.62c-0.3,1.81-1.36,3.17-2.98,4.06
				c-1.53,0.85-3.22,1-4.92,1.15c-1.75,0.16-3.48,0.41-5.1,1.17c-0.57,0.27-1.1,0.59-1.63,0.91c-1.15,0.7-2.24,1.5-3.29,2.33
				c-1.37,1.08-2.7,2.19-3.59,3.74c-0.69,1.2-1.22,2.45-1.45,3.82c-0.25,1.49-0.21,2.97-0.05,4.46c0.13,1.21,0.24,2.43,0.45,3.64
				c0.3,1.65,0.9,3.18,1.79,4.6C61.91,69.77,62.45,70.44,62.85,71.06"/>
			<g>
				<path class="st1" d="M67.78,59.28c1.31,0.2,2.52,0.32,3.64,0.81c2.21,0.97,3.55,2.6,3.76,5.05c0.24,2.79-1.93,5.38-4.71,5.7
					c-2.07,0.24-3.71-0.54-5.09-2.02c-0.95-1.02-1.46-2.27-1.95-3.54c-0.45-1.18-0.87-2.38-1.47-3.49
					c-0.74-1.36-1.74-2.51-2.92-3.53c-1.18-1.02-2.39-2.02-3.67-2.92c-1.85-1.31-3.87-2.15-6.19-2.26c-2.17-0.1-4.17,0.47-6.13,1.27
					c-0.87,0.35-1.75,0.67-2.61,1.04c-2.02,0.86-3.69,2.17-5.07,3.86c-0.87,1.06-1.67,2.18-2.64,3.16
					c-1.17,1.18-2.55,1.93-4.23,2.06c-2.48,0.19-5.11-1.48-5.72-4.17c-0.7-3.06,1.23-5.97,4.33-6.69c1.05-0.24,2.1-0.27,3.15-0.1
					c0.93,0.15,1.86,0.29,2.79,0.43c1.56,0.23,3.12,0.24,4.66-0.04c1.1-0.2,2.14-0.6,3.19-1c1.02-0.38,2.02-0.78,3.02-1.22
					c1.74-0.76,3.26-1.82,4.45-3.33c1.02-1.3,1.77-2.74,2.17-4.34c0.34-1.37,0.53-2.78,0.74-4.17c0.22-1.48,0.35-2.97,0.13-4.46
					c-0.17-1.15-0.51-2.25-0.91-3.33c-0.54-1.45-1.23-2.84-1.47-4.4c-0.24-1.61-0.02-3.13,0.91-4.48c1.12-1.64,2.69-2.48,4.7-2.42
					c1.8,0.05,3.24,0.86,4.25,2.28c1.07,1.5,1.28,3.2,0.77,4.98c-0.48,1.68-1.57,2.99-2.67,4.29c-1.13,1.35-2.18,2.75-2.78,4.43
					c-0.21,0.59-0.36,1.19-0.51,1.8c-0.32,1.31-0.52,2.64-0.68,3.98c-0.2,1.73-0.36,3.46,0.11,5.18c0.36,1.34,0.87,2.6,1.68,3.73
					c0.88,1.23,1.95,2.24,3.12,3.19c0.95,0.77,1.89,1.55,2.89,2.25c1.38,0.96,2.88,1.61,4.52,1.99
					C66.21,59.03,67.06,59.12,67.78,59.28"/>
			</g>
		</g>
	</g>
	<g>
		<path class="st0" d="M139.95,42.78v0.16l-13.94,35.13h-6.15v-0.11l5.25-12.14l-10.12-22.89v-0.16h6.25l5.03,12.08
			c0.58,1.43,1.11,2.86,1.59,4.61c0.48-1.75,0.95-3.18,1.43-4.61l4.61-12.08H139.95z"/>
		<path class="st0" d="M144.83,30.38h22.52v5.78h-16.27v10.39h14.57v5.62h-14.57v14.25h-6.25V30.38z"/>
		<path class="st0" d="M171.86,34.41c0-1.91,1.38-3.45,3.6-3.45s3.6,1.54,3.6,3.5c0,1.91-1.43,3.39-3.6,3.39
			C173.24,37.85,171.86,36.31,171.86,34.41z M172.55,42.78h5.78v23.63h-5.78V42.78z"/>
		<path class="st0" d="M185.11,28.26h5.78l0.05,38.16h-5.83V28.26z"/>
		<path class="st0" d="M219.18,53.75c0,0.85-0.11,1.8-0.21,2.75h-16.96c0.74,3.82,3.71,5.83,7.53,5.83c2.7,0,4.61-0.79,6.25-2.23
			l2.44,3.71c-2.7,2.17-5.56,3.29-9.22,3.29c-7.58,0-12.77-5.14-12.77-12.56c0-6.94,5.04-12.4,12.19-12.4
			C215.1,42.14,219.18,46.65,219.18,53.75z M202.07,52.58h11.66c-0.16-3.76-2.38-5.72-5.41-5.72
			C205.19,46.86,202.7,48.93,202.07,52.58z"/>
		<path class="st0" d="M222.52,64.35l2.28-4.08c2.01,1.27,4.24,1.96,6.46,1.96c2.12,0,3.5-0.95,3.5-2.44c0-1.75-2.23-2.6-4.56-3.5
			c-3.76-1.43-6.68-3.39-6.68-7.26c0-4.35,3.87-6.62,8.37-6.62c2.7,0,5.19,0.64,7.74,2.12l-2.01,3.87c-1.75-0.9-3.66-1.38-5.25-1.38
			c-1.8,0-3.34,0.53-3.34,2.01c0,1.54,1.75,2.44,4.29,3.34c4.13,1.54,7.1,3.5,7.1,7.42c0,4.4-3.55,7.15-8.74,7.15
			C228.2,66.94,225.28,66.1,222.52,64.35z"/>
	</g>
	<g>
		<g>
			<path class="st0" d="M116.66,88.24H115v-0.97h1.66v-2.29c0-1.57,0.81-2.88,2.57-2.88c0.85,0,1.44,0.25,2.05,0.7l-0.5,0.79
				c-0.45-0.31-0.85-0.47-1.42-0.47c-0.97,0-1.6,0.63-1.6,1.85v2.29h2.61v0.97h-2.61v6.99h-1.1V88.24z"/>
			<path class="st0" d="M121.09,91.25c0-2.45,1.71-4.18,4.11-4.18c2.43,0,4.14,1.73,4.14,4.18c0,2.45-1.71,4.18-4.14,4.18
				C122.8,95.42,121.09,93.7,121.09,91.25z M128.22,91.25c0-1.84-1.22-3.15-3.03-3.15c-1.76,0-2.99,1.31-2.99,3.15
				c0,1.85,1.22,3.15,2.99,3.15C126.97,94.4,128.22,93.1,128.22,91.25z"/>
			<path class="st0" d="M136.23,87.38l-0.32,0.97c-0.31-0.11-0.61-0.2-1.06-0.2c-1.3,0-2.18,0.92-2.18,2.47v4.61h-1.1v-7.96h0.83
				l0.22,1.17c0.45-0.83,1.21-1.33,2.32-1.33C135.43,87.11,135.87,87.21,136.23,87.38z"/>
			<path class="st0" d="M148.4,90.36v4.86h-1.1v-4.9c0-1.33-0.54-2.2-1.87-2.2c-1.69,0-2.63,1.44-2.63,3.17v3.92h-1.1V82.32h1.1
				v5.15c0,0.4,0,0.77-0.02,1.24c0.49-0.94,1.4-1.6,2.75-1.6C147.48,87.11,148.4,88.33,148.4,90.36z"/>
			<path class="st0" d="M151.51,92.98v-4.74l-1.55-0.07v-0.9h1.55v-2.65h1.1v2.65h2.84v0.97h-2.84v4.74c0,1.01,0.41,1.35,1.12,1.35
				c0.56,0,1.06-0.18,1.57-0.54l0.49,0.83c-0.59,0.45-1.33,0.76-2.16,0.76C152.32,95.37,151.51,94.61,151.51,92.98z"/>
			<path class="st0" d="M168.97,90.24v4.99h-1.1v-5.04c0-1.28-0.65-2.05-1.76-2.05c-1.6,0-2.43,1.46-2.43,2.95v4.14h-1.1v-5.06
				c0-1.1-0.56-2.03-1.76-2.03c-1.62,0-2.45,1.46-2.45,2.95v4.14h-1.1v-7.96h0.83l0.25,1.37c0.52-0.97,1.44-1.53,2.59-1.53
				c1.21,0,2.09,0.59,2.47,1.6c0.52-0.97,1.44-1.6,2.77-1.6C168,87.11,168.97,88.31,168.97,90.24z"/>
			<path class="st0" d="M171.52,82.32h1.1l0.02,12.91h-1.1L171.52,82.32z"/>
		</g>
	</g>
</g>
</svg>
